<mxfile host="Electron" agent="Mozilla/5.0 (Windows NT 10.0; Win64; x64) AppleWebKit/537.36 (KHTML, like Gecko) draw.io/26.2.15 Chrome/134.0.6998.205 Electron/35.2.1 Safari/537.36" version="26.2.15">
  <diagram name="第 1 页" id="Z_28YBXc22AtrvbPcWWF">
    <mxGraphModel dx="1810" dy="663" grid="1" gridSize="10" guides="1" tooltips="1" connect="1" arrows="1" fold="1" page="1" pageScale="1" pageWidth="827" pageHeight="1169" math="0" shadow="0">
      <root>
        <mxCell id="0" />
        <mxCell id="1" parent="0" />
        <mxCell id="5qB5kbAC-wvWeotH8ph9-1" value="" style="rounded=0;whiteSpace=wrap;html=1;" vertex="1" parent="1">
          <mxGeometry x="-307.5" y="730" width="90" height="90" as="geometry" />
        </mxCell>
        <mxCell id="5qB5kbAC-wvWeotH8ph9-2" value="" style="rounded=0;whiteSpace=wrap;html=1;" vertex="1" parent="1">
          <mxGeometry x="-496" y="730" width="90" height="120" as="geometry" />
        </mxCell>
        <mxCell id="5qB5kbAC-wvWeotH8ph9-3" style="edgeStyle=none;rounded=0;orthogonalLoop=1;jettySize=auto;html=1;exitX=1;exitY=0.5;exitDx=0;exitDy=0;entryX=0;entryY=1;entryDx=0;entryDy=0;" edge="1" parent="1" source="5qB5kbAC-wvWeotH8ph9-37" target="5qB5kbAC-wvWeotH8ph9-12">
          <mxGeometry x="10" y="10" relative="1" as="geometry">
            <mxPoint x="-347" y="826" as="targetPoint" />
          </mxGeometry>
        </mxCell>
        <mxCell id="5qB5kbAC-wvWeotH8ph9-4" value="" style="rounded=0;whiteSpace=wrap;html=1;" vertex="1" parent="1">
          <mxGeometry x="-496" y="820" width="90" height="30" as="geometry" />
        </mxCell>
        <mxCell id="5qB5kbAC-wvWeotH8ph9-5" value="&lt;div style=&quot;text-align: center; font-size: 14px;&quot;&gt;&lt;font face=&quot;helvetica&quot; style=&quot;font-size: 14px;&quot;&gt;vddr=&lt;/font&gt;&lt;/div&gt;&lt;div style=&quot;text-align: center; font-size: 14px;&quot;&gt;&lt;span style=&quot;background-color: initial;&quot;&gt;&lt;font face=&quot;helvetica&quot; style=&quot;font-size: 14px;&quot;&gt;ffff800009e6d000&lt;/font&gt;&lt;/span&gt;&lt;/div&gt;&lt;div style=&quot;text-align: center&quot;&gt;&lt;/div&gt;" style="text;whiteSpace=wrap;html=1;" vertex="1" parent="1">
          <mxGeometry x="-590" y="848" width="90" height="30" as="geometry" />
        </mxCell>
        <mxCell id="5qB5kbAC-wvWeotH8ph9-6" value="&lt;div style=&quot;text-align: center&quot;&gt;&lt;span style=&quot;background-color: rgb(255, 255, 51);&quot;&gt;&lt;font face=&quot;helvetica&quot;&gt;phy=0x41fea000&lt;/font&gt;&lt;/span&gt;&lt;/div&gt;&lt;div style=&quot;text-align: center&quot;&gt;&lt;span style=&quot;background-color: rgb(255, 255, 51);&quot;&gt;&lt;font face=&quot;helvetica&quot;&gt;Virt=&lt;/font&gt;&lt;/span&gt;&lt;span style=&quot;font-family: helvetica; background-color: initial;&quot;&gt;ffff800009dea000&lt;/span&gt;&lt;/div&gt;&lt;div style=&quot;text-align: center;&quot;&gt;&lt;/div&gt;" style="text;whiteSpace=wrap;html=1;" vertex="1" parent="1">
          <mxGeometry x="-410" y="845" width="150" height="60" as="geometry" />
        </mxCell>
        <mxCell id="5qB5kbAC-wvWeotH8ph9-7" value="&lt;div style=&quot;text-align: center&quot;&gt;&lt;br&gt;&lt;/div&gt;" style="text;whiteSpace=wrap;html=1;" vertex="1" parent="1">
          <mxGeometry x="-406" y="790" width="90" height="30" as="geometry" />
        </mxCell>
        <mxCell id="5qB5kbAC-wvWeotH8ph9-8" value="swapper_pg_dir" style="text;html=1;strokeColor=none;fillColor=none;align=center;verticalAlign=middle;whiteSpace=wrap;rounded=0;" vertex="1" parent="1">
          <mxGeometry x="-460" y="853" width="40" height="20" as="geometry" />
        </mxCell>
        <mxCell id="5qB5kbAC-wvWeotH8ph9-9" value="vaddr=0x" style="rounded=0;whiteSpace=wrap;html=1;" vertex="1" parent="1">
          <mxGeometry x="-690" y="836" width="100" height="30" as="geometry" />
        </mxCell>
        <mxCell id="5qB5kbAC-wvWeotH8ph9-10" value="" style="endArrow=classic;html=1;entryX=0.856;entryY=-0.027;entryDx=0;entryDy=0;entryPerimeter=0;" edge="1" parent="1">
          <mxGeometry x="10" y="10" width="50" height="50" relative="1" as="geometry">
            <mxPoint x="-600" y="838.9999999999998" as="sourcePoint" />
            <mxPoint x="-506.96000000000004" y="838.9999999999998" as="targetPoint" />
          </mxGeometry>
        </mxCell>
        <mxCell id="5qB5kbAC-wvWeotH8ph9-11" value="" style="rounded=0;whiteSpace=wrap;html=1;" vertex="1" parent="1">
          <mxGeometry x="-110" y="725" width="90" height="125" as="geometry" />
        </mxCell>
        <mxCell id="5qB5kbAC-wvWeotH8ph9-12" value="" style="rounded=0;whiteSpace=wrap;html=1;" vertex="1" parent="1">
          <mxGeometry x="-307.5" y="820" width="90" height="30" as="geometry" />
        </mxCell>
        <mxCell id="5qB5kbAC-wvWeotH8ph9-13" value="&lt;font face=&quot;helvetica&quot; style=&quot;background-color: rgb(255, 102, 102);&quot;&gt;phy=0x41feb000&lt;/font&gt;" style="text;whiteSpace=wrap;html=1;" vertex="1" parent="1">
          <mxGeometry x="-200" y="843" width="90" height="30" as="geometry" />
        </mxCell>
        <mxCell id="5qB5kbAC-wvWeotH8ph9-14" value="OFFSET&lt;br&gt;[11:0]=0x44&amp;nbsp;" style="rounded=0;whiteSpace=wrap;html=1;" vertex="1" parent="1">
          <mxGeometry x="110" y="610" width="160" height="60" as="geometry" />
        </mxCell>
        <mxCell id="5qB5kbAC-wvWeotH8ph9-15" value="" style="endArrow=none;html=1;exitX=1;exitY=0;exitDx=0;exitDy=0;" edge="1" parent="1">
          <mxGeometry x="10" y="10" width="50" height="50" relative="1" as="geometry">
            <mxPoint x="270" y="609" as="sourcePoint" />
            <mxPoint x="270" y="481" as="targetPoint" />
          </mxGeometry>
        </mxCell>
        <mxCell id="5qB5kbAC-wvWeotH8ph9-16" value="Select TTBR" style="rounded=0;whiteSpace=wrap;html=1;" vertex="1" parent="1">
          <mxGeometry x="-600" y="610" width="80" height="60" as="geometry" />
        </mxCell>
        <mxCell id="5qB5kbAC-wvWeotH8ph9-17" value="global DIR&lt;br&gt;[47:39]=0x0| L0" style="rounded=0;whiteSpace=wrap;html=1;" vertex="1" parent="1">
          <mxGeometry x="-520" y="610" width="150" height="60" as="geometry" />
        </mxCell>
        <mxCell id="5qB5kbAC-wvWeotH8ph9-18" value="upper DIR&lt;br&gt;[38:30]=0x0 |L1" style="rounded=0;whiteSpace=wrap;html=1;" vertex="1" parent="1">
          <mxGeometry x="-370" y="610" width="150" height="60" as="geometry" />
        </mxCell>
        <mxCell id="5qB5kbAC-wvWeotH8ph9-19" value="pmd DIR&lt;br&gt;[29:21]=0x44 |L2" style="rounded=0;whiteSpace=wrap;html=1;" vertex="1" parent="1">
          <mxGeometry x="-220" y="610" width="170" height="60" as="geometry" />
        </mxCell>
        <mxCell id="5qB5kbAC-wvWeotH8ph9-20" value="" style="endArrow=classic;html=1;rounded=0;exitX=1;exitY=0.5;exitDx=0;exitDy=0;" edge="1" parent="1" source="5qB5kbAC-wvWeotH8ph9-1">
          <mxGeometry x="10" y="10" width="50" height="50" relative="1" as="geometry">
            <mxPoint x="-220.5" y="740" as="sourcePoint" />
            <mxPoint x="-123" y="838" as="targetPoint" />
          </mxGeometry>
        </mxCell>
        <mxCell id="5qB5kbAC-wvWeotH8ph9-21" value="PTE TABLE&lt;br&gt;[20:12]=0x44 |L3" style="rounded=0;whiteSpace=wrap;html=1;" vertex="1" parent="1">
          <mxGeometry x="-50" y="610" width="160" height="60" as="geometry" />
        </mxCell>
        <mxCell id="5qB5kbAC-wvWeotH8ph9-22" value="" style="endArrow=none;html=1;rounded=0;exitX=1;exitY=0;exitDx=0;exitDy=0;" edge="1" parent="1" source="5qB5kbAC-wvWeotH8ph9-21">
          <mxGeometry x="10" y="10" width="50" height="50" relative="1" as="geometry">
            <mxPoint x="50" y="570" as="sourcePoint" />
            <mxPoint x="110" y="570" as="targetPoint" />
          </mxGeometry>
        </mxCell>
        <mxCell id="5qB5kbAC-wvWeotH8ph9-23" value="" style="endArrow=none;html=1;rounded=0;exitX=1;exitY=0;exitDx=0;exitDy=0;" edge="1" parent="1" source="5qB5kbAC-wvWeotH8ph9-19">
          <mxGeometry x="10" y="10" width="50" height="50" relative="1" as="geometry">
            <mxPoint x="-110" y="530" as="sourcePoint" />
            <mxPoint x="-50" y="550" as="targetPoint" />
          </mxGeometry>
        </mxCell>
        <mxCell id="5qB5kbAC-wvWeotH8ph9-24" value="" style="endArrow=none;html=1;rounded=0;exitX=0;exitY=0;exitDx=0;exitDy=0;" edge="1" parent="1" source="5qB5kbAC-wvWeotH8ph9-19">
          <mxGeometry x="10" y="10" width="50" height="50" relative="1" as="geometry">
            <mxPoint x="-270" y="490" as="sourcePoint" />
            <mxPoint x="-220" y="530" as="targetPoint" />
          </mxGeometry>
        </mxCell>
        <mxCell id="5qB5kbAC-wvWeotH8ph9-25" value="" style="endArrow=none;html=1;rounded=0;exitX=1;exitY=0;exitDx=0;exitDy=0;" edge="1" parent="1" source="5qB5kbAC-wvWeotH8ph9-17">
          <mxGeometry x="10" y="10" width="50" height="50" relative="1" as="geometry">
            <mxPoint x="-430" y="530" as="sourcePoint" />
            <mxPoint x="-370" y="520" as="targetPoint" />
          </mxGeometry>
        </mxCell>
        <mxCell id="5qB5kbAC-wvWeotH8ph9-26" value="" style="endArrow=classic;startArrow=classic;html=1;" edge="1" parent="1">
          <mxGeometry x="10" y="10" width="50" height="50" relative="1" as="geometry">
            <mxPoint x="110" y="581" as="sourcePoint" />
            <mxPoint x="270" y="581" as="targetPoint" />
          </mxGeometry>
        </mxCell>
        <mxCell id="5qB5kbAC-wvWeotH8ph9-27" value="" style="endArrow=classic;startArrow=classic;html=1;" edge="1" parent="1">
          <mxGeometry x="10" y="10" width="50" height="50" relative="1" as="geometry">
            <mxPoint x="-50" y="561" as="sourcePoint" />
            <mxPoint x="270" y="561" as="targetPoint" />
          </mxGeometry>
        </mxCell>
        <mxCell id="5qB5kbAC-wvWeotH8ph9-28" value="page_shift" style="text;html=1;strokeColor=none;fillColor=none;align=center;verticalAlign=middle;whiteSpace=wrap;rounded=0;" vertex="1" parent="1">
          <mxGeometry x="166.5" y="596" width="53.5" height="20" as="geometry" />
        </mxCell>
        <mxCell id="5qB5kbAC-wvWeotH8ph9-29" value="pmd_shift" style="text;html=1;strokeColor=none;fillColor=none;align=center;verticalAlign=middle;whiteSpace=wrap;rounded=0;" vertex="1" parent="1">
          <mxGeometry x="52" y="576" width="40" height="20" as="geometry" />
        </mxCell>
        <mxCell id="5qB5kbAC-wvWeotH8ph9-30" value="" style="endArrow=classic;startArrow=classic;html=1;" edge="1" parent="1">
          <mxGeometry x="10" y="10" width="50" height="50" relative="1" as="geometry">
            <mxPoint x="-220" y="541" as="sourcePoint" />
            <mxPoint x="270" y="541" as="targetPoint" />
          </mxGeometry>
        </mxCell>
        <mxCell id="5qB5kbAC-wvWeotH8ph9-31" value="pud_shift" style="text;html=1;strokeColor=none;fillColor=none;align=center;verticalAlign=middle;whiteSpace=wrap;rounded=0;" vertex="1" parent="1">
          <mxGeometry x="-210" y="550" width="40" height="20" as="geometry" />
        </mxCell>
        <mxCell id="5qB5kbAC-wvWeotH8ph9-32" value="" style="endArrow=classic;startArrow=classic;html=1;" edge="1" parent="1">
          <mxGeometry x="10" y="10" width="50" height="50" relative="1" as="geometry">
            <mxPoint x="-370" y="531" as="sourcePoint" />
            <mxPoint x="270" y="531" as="targetPoint" />
          </mxGeometry>
        </mxCell>
        <mxCell id="5qB5kbAC-wvWeotH8ph9-33" value="pgd_shift" style="text;html=1;strokeColor=none;fillColor=none;align=center;verticalAlign=middle;whiteSpace=wrap;rounded=0;" vertex="1" parent="1">
          <mxGeometry x="-360" y="550" width="40" height="20" as="geometry" />
        </mxCell>
        <mxCell id="5qB5kbAC-wvWeotH8ph9-34" value="&lt;font style=&quot;font-size: 16px;&quot;&gt;bm_pud&lt;/font&gt;" style="text;html=1;strokeColor=none;fillColor=none;align=center;verticalAlign=middle;whiteSpace=wrap;rounded=0;" diagramCategory="general" diagramName="text" vertex="1" parent="1">
          <mxGeometry x="-282.5" y="853" width="40" height="20" as="geometry" />
        </mxCell>
        <mxCell id="5qB5kbAC-wvWeotH8ph9-35" value="TTBR1_EL1" style="text;html=1;strokeColor=none;fillColor=none;align=center;verticalAlign=middle;whiteSpace=wrap;rounded=0;" diagramCategory="general" diagramName="text" vertex="1" parent="1">
          <mxGeometry x="-645" y="816" width="40" height="20" as="geometry" />
        </mxCell>
        <mxCell id="5qB5kbAC-wvWeotH8ph9-36" style="edgeStyle=orthogonalEdgeStyle;rounded=0;orthogonalLoop=1;jettySize=auto;html=1;exitX=0.5;exitY=1;exitDx=0;exitDy=0;" edge="1" parent="1" source="5qB5kbAC-wvWeotH8ph9-5" target="5qB5kbAC-wvWeotH8ph9-5">
          <mxGeometry x="10" y="10" relative="1" as="geometry" />
        </mxCell>
        <mxCell id="5qB5kbAC-wvWeotH8ph9-37" value="&lt;span style=&quot;background-color: rgb(255, 255, 102);&quot;&gt;0x41fea0003&lt;/span&gt;" style="rounded=0;whiteSpace=wrap;html=1;" vertex="1" parent="1">
          <mxGeometry x="-496" y="760" width="90" height="30" as="geometry" />
        </mxCell>
        <mxCell id="5qB5kbAC-wvWeotH8ph9-38" value="&lt;span style=&quot;background-color: rgb(204, 204, 255);&quot;&gt;vddr=&lt;br /&gt;0xffff800009e6dfd8&lt;/span&gt;" style="text;html=1;strokeColor=none;fillColor=none;align=center;verticalAlign=middle;whiteSpace=wrap;rounded=0;" diagramCategory="general" diagramName="text" vertex="1" parent="1">
          <mxGeometry x="-570" y="780" width="40" height="20" as="geometry" />
        </mxCell>
        <mxCell id="5qB5kbAC-wvWeotH8ph9-39" value="&lt;font style=&quot;font-size: 16px;&quot;&gt;bm_pmd&lt;/font&gt;" style="text;html=1;strokeColor=none;fillColor=none;align=center;verticalAlign=middle;whiteSpace=wrap;rounded=0;" diagramCategory="general" diagramName="text" vertex="1" parent="1">
          <mxGeometry x="-79.5" y="853" width="40" height="20" as="geometry" />
        </mxCell>
        <mxCell id="5qB5kbAC-wvWeotH8ph9-40" value="&lt;span style=&quot;background-color: rgb(255, 153, 153);&quot;&gt;0x41feb0003&lt;/span&gt;" style="rounded=0;whiteSpace=wrap;html=1;" vertex="1" parent="1">
          <mxGeometry x="-307.5" y="760" width="90" height="30" as="geometry" />
        </mxCell>
        <mxCell id="5qB5kbAC-wvWeotH8ph9-41" value="&lt;span style=&quot;background-color: rgb(51, 255, 153);&quot;&gt;0x41feb0003&lt;/span&gt;" style="rounded=0;whiteSpace=wrap;html=1;" vertex="1" parent="1">
          <mxGeometry x="-110" y="760" width="90" height="30" as="geometry" />
        </mxCell>
        <mxCell id="5qB5kbAC-wvWeotH8ph9-42" value="" style="rounded=0;whiteSpace=wrap;html=1;" vertex="1" parent="1">
          <mxGeometry x="90" y="725" width="90" height="125" as="geometry" />
        </mxCell>
        <mxCell id="5qB5kbAC-wvWeotH8ph9-43" value="" style="rounded=0;whiteSpace=wrap;html=1;" vertex="1" parent="1">
          <mxGeometry x="90" y="760" width="90" height="30" as="geometry" />
        </mxCell>
        <mxCell id="5qB5kbAC-wvWeotH8ph9-44" value="&lt;font face=&quot;helvetica&quot; style=&quot;background-color: rgb(51, 255, 153);&quot;&gt;phy=0x41fec000&lt;/font&gt;" style="text;whiteSpace=wrap;html=1;" vertex="1" parent="1">
          <mxGeometry y="850" width="90" height="30" as="geometry" />
        </mxCell>
        <mxCell id="5qB5kbAC-wvWeotH8ph9-45" value="&lt;font style=&quot;font-size: 16px;&quot;&gt;bm_pte&lt;/font&gt;" style="text;html=1;strokeColor=none;fillColor=none;align=center;verticalAlign=middle;whiteSpace=wrap;rounded=0;" diagramCategory="general" diagramName="text" vertex="1" parent="1">
          <mxGeometry x="116.5" y="853" width="40" height="20" as="geometry" />
        </mxCell>
        <mxCell id="5qB5kbAC-wvWeotH8ph9-46" value="" style="endArrow=classic;html=1;exitX=1;exitY=0.5;exitDx=0;exitDy=0;entryX=1;entryY=0;entryDx=0;entryDy=0;" diagramCategory="general" diagramName="DirectionalConnector" edge="1" parent="1" source="5qB5kbAC-wvWeotH8ph9-41" target="5qB5kbAC-wvWeotH8ph9-44">
          <mxGeometry x="10" y="10" width="50" height="50" relative="1" as="geometry">
            <mxPoint x="20" y="750" as="sourcePoint" />
            <mxPoint x="70" y="700" as="targetPoint" />
          </mxGeometry>
        </mxCell>
        <mxCell id="5qB5kbAC-wvWeotH8ph9-47" value="&lt;span style=&quot;background-color: rgb(255, 204, 204);&quot;&gt;1&lt;/span&gt;" style="ellipse;whiteSpace=wrap;html=1;aspect=fixed;" diagramCategory="general" diagramName="circle" vertex="1" parent="1">
          <mxGeometry x="-635" y="770" width="30" height="30" as="geometry" />
        </mxCell>
        <mxCell id="5qB5kbAC-wvWeotH8ph9-48" value="&lt;span style=&quot;background-color: rgb(255, 204, 204);&quot;&gt;2&lt;/span&gt;" style="ellipse;whiteSpace=wrap;html=1;aspect=fixed;" diagramCategory="general" diagramName="circle" vertex="1" parent="1">
          <mxGeometry x="-350" y="760" width="30" height="30" as="geometry" />
        </mxCell>
        <mxCell id="5qB5kbAC-wvWeotH8ph9-49" value="&lt;span style=&quot;background-color: rgb(255, 204, 204);&quot;&gt;3&lt;/span&gt;" style="ellipse;whiteSpace=wrap;html=1;aspect=fixed;" diagramCategory="general" diagramName="circle" vertex="1" parent="1">
          <mxGeometry x="-150" y="760" width="30" height="30" as="geometry" />
        </mxCell>
        <mxCell id="5qB5kbAC-wvWeotH8ph9-50" value="&lt;span style=&quot;background-color: rgb(255, 204, 204);&quot;&gt;4&lt;/span&gt;" style="ellipse;whiteSpace=wrap;html=1;aspect=fixed;" diagramCategory="general" diagramName="circle" vertex="1" parent="1">
          <mxGeometry x="52" y="760" width="30" height="30" as="geometry" />
        </mxCell>
      </root>
    </mxGraphModel>
  </diagram>
</mxfile>
